<svg xmlns="http://www.w3.org/2000/svg" id="a" viewBox="0 0 399.42 461.13"><defs><style>.b,.c{fill:#f4f6f3;stroke-width:0}.c{fill:#040303}</style></defs><path d="m105.28,15.78c38.03-4.95,67.8,28.3,66.39,64.17-6.81-7.87-6.93-17.93-25.86-35.93-41.53-39.49-105.35-1.41-105.21,50.14,4.05-4.84,2.51-9.28,14.63-19.48,21.29-17.92,56.39-12.14,57.61,27.73-8.32-2.39-17.02-15.38-32.43-20.57-22-7.39-22.27,11.96-23.5,28.45-7.34,6.2-18.11,9.23-29.72,23.87C8.57,157.64,0,183.95,0,215.29c0,11.5,2.66,37.9,7.83,45.72,4.2-26.54-.1-38,13.48-61.39,5.13-8.83,9.24-14.9,15.85-21.73,4.37-4.52,13.82-15.22,20.48-16.95-4.84,4.02-17.22,21.25-20.72,26.72-6.49,10.17-11.65,21.66-13.14,34.67,1.65-.92,5.84-7.34,8.79-10.19,8.61-8.32,25.89-20.7,37.13-23.29-9.23,11.46-17.27,16.83-27.66,33.92-18.82,30.95-29.92,59.87-17.54,97.67,4.72,14.4,15.38,32.22,23.82,38.85-7.46-23.51-10.29-41.41-2.99-68.21,3.98-14.6,9.66-28.71,18.04-40.71,3.08-4.41,5.68-6.7,8.15-10.66-.07,4.07-9.88,27.88-11.69,38.35-1.79,10.39-3.91,39.65.67,48.11,8.32-38.82,19.84-51.51,43.36-76.59,3.8-4.05,6.55-4.64,8.99-7.69-1.06,3.45-16.43,25.27-24.8,48.14-22.64,61.84-26.74,126.84,46.65,146.78-2.39-5.63-17.35-18.09-21.56-50.17-2.27-17.34.45-47.72,7.36-61.53.72,43.57,16.3,74.59,42.08,104.7,5.87,6.85,27.5,27.01,35.72,31.34,7.82-2.8,24.44-18.5,29.67-23.67,7.34-7.26,18.67-20.14,24.92-30.07,20.01-31.76,22.54-40.03,26.08-84.09,7.71,36.49,14.55,67.69-7.87,103.5-4.45,7.11-6.41,7.01-7.39,10.55,20.32-8.79,33.39-12.82,45.43-27.47,31.55-38.37,11.42-103.85-9.15-143.8-4.55-8.84-10.08-16.41-13.92-23.34,9.18,3.42,27.19,27.23,32.78,35.75,4.35,6.65,8.01,14.03,11.61,22.12,3.13,7.04,6.4,21.54,8.86,25.96,7.31-57.47-10.25-76.55-11.69-86.85,1.19,2.05,5.67,6.82,7.73,9.75,8.62,12.26,14.67,26.36,18.48,41.48,7.78,30.88,4.1,40.9-2.77,68.36,3.87-2.68,10.98-13.29,13.57-17.67,13.88-23.46,19.65-50.15,12.31-77.52-7.62-28.43-33.8-62.91-49.78-76.03,5.65,1.21,22.3,10.88,26.61,14.23,5.02,3.9,6.96,5.09,11.53,9.71,2.42,2.45,6.41,8.91,9.82,10.24-3.77-19.07-10.47-32.68-21.49-47.33-3.18-4.23-8.8-9.28-10.54-13.76,13.36,8.55,26.71,23.66,35.24,39.12,13.37,24.25,11.07,55.8,13.71,60.49,4.48-7.91,7.44-34.72,7.38-45.52-.26-44.09-19.33-85.68-57.56-104.81.04-61.11-46.03-12.73-55.12-7.86-2.8-38.16,45.88-57.79,70.32-8.89,6.03-10.19-11.14-38.18-16.35-43.32-11.74-11.59-21.04-19.66-40.3-22.02-21.06-2.59-35.55,4.83-46.72,14.75-17.72,15.74-21.17,31.89-26.4,36.96-1.44-34.72,29.4-71.14,66.13-64.01-6.71-11.71-53.84-24.35-78.14-7.5-8.25,5.72-9.69,10.17-15.74,18.46l-7.01-9.78c-21.24-24.07-58.34-19.9-81.92-5.95l-5.32,4.49h0Z" class="c"/><path d="m104.74,160.29c16.59,26.85,33.47,19.32,39.14,28.19,5.96,9.32-8.38,42.63-9.07,54.01,3.5-1,7.12-2.66,10.66-3.95,6.1-2.23,6.71-2.7,8.37,3-4.67,6.03-17.49,5.5-19.85,12.5,3.71,1.93,17.61-3.86,24.51-4.27,1.91,14.61-10.71,4.93-22.57,14.27,11.64,19.11,51.58,11.22,56.38-4.77,5.09-16.95-8.14-20.96-21.21-28.07-15.09-8.21-1.53-38.52-8.53-58.88-2.31-6.73-2.74-5.04-9.24-7.1-9.5-3.01-15-14.52-24.58-25.74,5.76.05,19.92-.26,24.61.2,6.17.6,12.77,8.05,17.44,11.07,6.05-.82,6.83-2.82,12.85-4.69-6.21,15.1-6.84,7.38-9.5,31.39-1.15,10.37-4.23,25.99-2.01,35.44,8.82,3.57,50.03,5.12,54.04-1.26,2.57-6.08-1.07-26.64-1.95-34.65-1.98-17.9-4.35-18.15-9.62-30.93,5.94,1.24,9.67,5.48,13.08,4.65,8.01-1.95,5.58-11.9,24.43-10.8l17.72.4c-9.17,9.95-9.92,13.02-14.66,18.14-15.22,16.47-20.99-7.15-20.92,45.61.02,14.1,3.35,20.91-6.72,26.73-5.22,3.02-17.26,8.93-19.95,12.56-6.77,9.11.59,20.23,5.56,24.6,12.23,10.76,42.49,10.09,48.8-4.37-6.5-2.76-16.61-3.92-22.55-8.28l.67-5.04c7.63-2.42,18.69,6.53,24.65,3.79-4.42-8.92-20.95-3.9-19.64-15.99,6.49-1.31,13.18,2.59,18.35,4.4-1.07-19.97-20.92-52.08-2.65-58.47,13.24-4.63,17.36-4.47,25.3-13.45,10.46-11.83,7.2-11.15.85-25.08-8.74-19.18-15.03-33.91-38.03-39.58-28.04-6.92-39.76,8.79-49.6,23.94-2.36-2.39-6.67-9.4-8.58-11.98-11.12-15.02-32.47-16.39-49.09-9.25-17.18,7.38-22.98,21.03-29.56,36.76-2.01,4.82-6.09,11-7.33,14.95h0Z" class="b"/><path d="m179.54,330.15l-2.91-13.71c1.8,2.01,3.49,6.01,4.77,8.2,2.74,4.68,13.84,17.9,18.14,20.73,17.75-18.57,13.68-17.41,22.34-29.11l-2.39,13.16c6.63-5.66,8.08-5.96,12.16-13.31,14.72-26.5-20.2-28.91-32.13-39.29-6.33,3.71-29.79,14.97-32.92,19.28-8.24,11.33,5.15,31.2,12.93,34.05h0Z" class="b"/></svg>